<svg width="13" height="9" viewBox="0 0 13 9" fill="none" xmlns="http://www.w3.org/2000/svg">
<path d="M6.84076 1.80877C8.88137 1.80877 10.7012 2.9556 11.5896 4.77007C10.7012 6.58454 8.88675 7.73137 6.84076 7.73137C4.79477 7.73137 2.9803 6.58454 2.09191 4.77007C2.9803 2.9556 4.80016 1.80877 6.84076 1.80877ZM6.84076 0.731934C4.24882 0.731934 2.02122 2.28415 1.02774 4.5092C0.953617 4.67521 0.953617 4.86494 1.02774 5.03094C2.02122 7.25599 4.24882 8.80821 6.84076 8.80821C9.43271 8.80821 11.6603 7.25599 12.6538 5.03094C12.7279 4.86494 12.7279 4.67521 12.6538 4.5092C11.6603 2.28415 9.43271 0.731934 6.84076 0.731934ZM6.84076 3.42403C7.58378 3.42403 8.18681 4.02705 8.18681 4.77007C8.18681 5.51309 7.58378 6.11612 6.84076 6.11612C6.09775 6.11612 5.49472 5.51309 5.49472 4.77007C5.49472 4.02705 6.09775 3.42403 6.84076 3.42403ZM6.84076 2.34719C5.50548 2.34719 4.41788 3.43479 4.41788 4.77007C4.41788 6.10535 5.50548 7.19296 6.84076 7.19296C8.17604 7.19296 9.26365 6.10535 9.26365 4.77007C9.26365 3.43479 8.17604 2.34719 6.84076 2.34719Z" fill="#86C9F6"/>
</svg>
